<svg xmlns="http://www.w3.org/2000/svg" xmlns:xlink="http://www.w3.org/1999/xlink" fill="none" version="1.1" width="16" height="16" viewBox="0 0 16 16"><defs><clipPath id="master_svg0_6_1517"><rect x="0" y="0" width="16" height="16" rx="0"/></clipPath></defs><g clip-path="url(#master_svg0_6_1517)"><g transform="matrix(1,0,0,-1,0,32.6875)"><g><path d="M8,16.34375Q10.1875,16.375,12,17.40625Q13.8125,18.46875,14.9375,20.34375Q16,22.25,16,24.34375Q16,26.43755,14.9375,28.34375Q13.8125,30.21875,12,31.28125Q10.1875,32.31255,8,32.34375Q5.8125,32.31255,4,31.28125Q2.1875,30.21875,1.0625,28.34375Q0,26.43755,0,24.34375Q0,22.25,1.0625,20.34375Q2.1875,18.46875,4,17.40625Q5.8125,16.375,8,16.34375ZM6.75,21.84375L7.5,21.84375L6.75,21.84375L7.5,21.84375L7.5,23.84375L6.75,23.84375Q6.0625,23.90625,6,24.59375Q6.0625,25.28125,6.75,25.34375L8.25,25.34375Q8.9375,25.28125,9,24.59375L9,21.84375L9.25,21.84375Q9.9375,21.78125,10,21.09375Q9.9375,20.40625,9.25,20.34375L6.75,20.34375Q6.0625,20.40625,6,21.09375Q6.0625,21.78125,6.75,21.84375ZM8,28.34375Q8.4375,28.34375,8.71875,28.06255Q9,27.78125,9,27.34375Q9,26.90625,8.71875,26.62495Q8.4375,26.34375,8,26.34375Q7.5625,26.34375,7.28125,26.62495Q7,26.90625,7,27.34375Q7,27.78125,7.28125,28.06255Q7.5625,28.34375,8,28.34375Z" fill="#CA8A04" fill-opacity="1" style="mix-blend-mode:passthrough"/></g></g></g></svg>