<svg xmlns="http://www.w3.org/2000/svg" xmlns:xlink="http://www.w3.org/1999/xlink" fill="none" version="1.1" width="15.944661140441895" height="16.008665084838867" viewBox="0 0 15.944661140441895 16.008665084838867"><g transform="matrix(1,0,0,-1,0,32.017330169677734)"><path d="M15.5019,31.82826508483887Q16,31.484565084838867,15.9377,30.859565084838867L13.9455,17.85951508483887Q13.8521,17.39076508483887,13.4475,17.14076508483887Q13.0117,16.922017084838867,12.5759,17.10951508483887L8.84047,18.64076508483887L6.72374,16.328267084838867Q6.22568,15.859517084838867,5.60311,16.078267384838867Q5.01167,16.359517084838867,4.98054,17.01576508483887L4.98054,19.64076508483887Q4.98054,19.82826508483887,5.10506,19.95326508483887L10.3346,25.67201508483887Q10.5837,26.01576508483887,10.3035,26.359565084838867Q9.99222,26.64076508483887,9.61868,26.39076508483887L3.29961,20.73451508483887L0.560311,22.10951508483887Q0.0311284,22.39076508483887,0,22.98451508483887Q0,23.57826508483887,0.498054,23.89076508483887L14.4436,31.89076508483887Q15.0039,32.17206508483886,15.5019,31.82826508483887Z" fill="#FFFFFF" fill-opacity="1" style="mix-blend-mode:passthrough"/></g></svg>