<svg xmlns="http://www.w3.org/2000/svg" xmlns:xlink="http://www.w3.org/1999/xlink" fill="none" version="1.1" width="15.693486213684082" height="13.999999046325684" viewBox="0 0 15.693486213684082 13.999999046325684"><g transform="matrix(1,0,0,-1,0,27.999998092651367)"><path d="M7.84674,27.999999046325684Q8.55172,27.968799046325685,8.91954,27.374999046325684L15.5402,15.874999046325684Q15.8467,15.249999046325684,15.5402,14.624999046325684Q15.1724,14.031249046325684,14.4674,13.999999046325684L1.22605,13.999999046325684Q0.521073,14.031249046325684,0.153257,14.624999046325684Q-0.153257,15.249999046325684,0.153257,15.874999046325684L6.8046,27.374999046325684Q7.17241,27.968799046325685,7.84674,27.999999046325684ZM7.84674,23.999999046325684Q7.17241,23.937499046325684,7.11111,23.249999046325684L7.11111,19.749999046325684Q7.17241,19.062499046325684,7.84674,18.999999046325684Q8.52107,19.062499046325684,8.58238,19.749999046325684L8.58238,23.249999046325684Q8.52107,23.937499046325684,7.84674,23.999999046325684ZM8.82759,16.999999046325684Q8.82759,17.437499046325684,8.55172,17.718749046325684Q8.27586,17.999999046325684,7.84674,17.999999046325684Q7.41762,17.999999046325684,7.14176,17.718749046325684Q6.8659,17.437499046325684,6.8659,16.999999046325684Q6.8659,16.562499046325684,7.14176,16.281249046325684Q7.41762,15.999999046325684,7.84674,15.999999046325684Q8.27586,15.999999046325684,8.55172,16.281249046325684Q8.82759,16.562499046325684,8.82759,16.999999046325684Z" fill="#B91C1C" fill-opacity="1" style="mix-blend-mode:passthrough"/></g></svg>